<svg width="20" height="16" viewBox="0 0 20 16" fill="none" xmlns="http://www.w3.org/2000/svg">
<path fill-rule="evenodd" clip-rule="evenodd" d="M18.6875 2.24533L10.7963 9.216C10.572 9.41417 10.29 9.52262 9.99875 9.52262C9.70755 9.52262 9.42549 9.41417 9.20125 9.216L1.31375 2.24533C1.27143 2.38122 1.2499 2.52348 1.25 2.66667V13.3333C1.25 13.687 1.3817 14.0261 1.61612 14.2761C1.85054 14.5262 2.16848 14.6667 2.5 14.6667H17.5C17.8315 14.6667 18.1495 14.5262 18.3839 14.2761C18.6183 14.0261 18.75 13.687 18.75 13.3333V2.66667C18.7505 2.52355 18.7294 2.38129 18.6875 2.24533ZM2.5 0H17.5C18.163 0 18.7989 0.280951 19.2678 0.781048C19.7366 1.28115 20 1.95942 20 2.66667V13.3333C20 14.0406 19.7366 14.7189 19.2678 15.219C18.7989 15.719 18.163 16 17.5 16H2.5C1.83696 16 1.20107 15.719 0.732233 15.219C0.263392 14.7189 0 14.0406 0 13.3333V2.66667C0 1.95942 0.263392 1.28115 0.732233 0.781048C1.20107 0.280951 1.83696 0 2.5 0ZM2.2375 1.33333L9.2075 7.47067C9.43073 7.66734 9.71105 7.77526 10.0006 7.77599C10.2901 7.77671 10.5709 7.67021 10.795 7.47467L17.835 1.33333H2.2375Z" fill="#808080"/>
</svg>
