<svg width="25" height="25" viewBox="0 0 25 25" fill="none" xmlns="http://www.w3.org/2000/svg">
<path fill-rule="evenodd" clip-rule="evenodd" d="M3.62727 3.61417C8.49254 -1.24486 16.4026 -1.19358 21.2974 3.70263C26.1947 8.60013 26.246 16.5143 21.3794 21.3798C16.5129 26.2452 8.60023 26.1952 3.70291 21.2977C2.32521 19.9259 1.28429 18.2534 0.661898 16.4115C0.0395033 14.5696 -0.147417 12.6085 0.115817 10.6822C0.150328 10.4294 0.28385 10.2006 0.48701 10.0463C0.690169 9.89193 0.946325 9.8246 1.19912 9.85911C1.45192 9.89363 1.68066 10.0272 1.83501 10.2303C1.98937 10.4335 2.05669 10.6897 2.02218 10.9425C1.7987 12.5749 1.9569 14.237 2.48433 15.798C3.01176 17.359 3.89405 18.7764 5.06185 19.9387C9.22201 24.0977 15.918 24.1221 20.0205 20.0208C24.1216 15.9182 24.0973 9.22193 19.9384 5.06162C15.7808 0.905166 9.08868 0.878243 4.98621 4.97444L5.94516 4.97829C6.07143 4.97888 6.19635 5.00433 6.31278 5.0532C6.42921 5.10207 6.53487 5.17339 6.62374 5.26309C6.71261 5.3528 6.78294 5.45913 6.83072 5.57602C6.87849 5.6929 6.90278 5.81805 6.90219 5.94433C6.9016 6.0706 6.87615 6.19552 6.82728 6.31195C6.77842 6.42839 6.7071 6.53406 6.6174 6.62293C6.5277 6.7118 6.42137 6.78213 6.30449 6.82991C6.1876 6.87769 6.06246 6.90198 5.93619 6.90139L2.67217 6.886C2.41871 6.88465 2.17604 6.78328 1.99694 6.60393C1.81783 6.42458 1.71679 6.18177 1.71578 5.9283L1.69911 2.66672C1.69844 2.54045 1.72264 2.41528 1.77034 2.29837C1.81804 2.18145 1.8883 2.07507 1.97711 1.9853C2.06592 1.89554 2.17153 1.82415 2.28793 1.7752C2.40433 1.72626 2.52923 1.70072 2.6555 1.70005C2.78177 1.69937 2.90693 1.72358 3.02385 1.77128C3.14076 1.81898 3.24713 1.88924 3.3369 1.97805C3.42666 2.06686 3.49805 2.17249 3.54699 2.28889C3.59593 2.40529 3.62147 2.5302 3.62214 2.65647L3.62727 3.61417ZM12.4988 6.40908C12.7539 6.40908 12.9984 6.51038 13.1787 6.69071C13.3591 6.87103 13.4604 7.11561 13.4604 7.37062V12.1014L16.3847 15.0246C16.4765 15.1132 16.5498 15.2193 16.6003 15.3366C16.6507 15.4539 16.6773 15.58 16.6785 15.7077C16.6796 15.8354 16.6554 15.962 16.6071 16.0802C16.5588 16.1984 16.4874 16.3058 16.3972 16.3961C16.307 16.4864 16.1997 16.5579 16.0815 16.6063C15.9634 16.6547 15.8368 16.6791 15.7091 16.678C15.5814 16.677 15.4552 16.6505 15.3379 16.6002C15.2206 16.5498 15.1145 16.4766 15.0257 16.3848L11.5386 12.8976V7.37191C11.5386 7.11689 11.6399 6.87231 11.8202 6.69199C12.0006 6.51166 12.2451 6.41036 12.5001 6.41036" fill="black"/>
</svg>
